<svg xmlns="http://www.w3.org/2000/svg" role="img" aria-labelledby="fable-omega-mega-hub-topology-title fable-omega-mega-hub-topology-desc" width="100%" height="auto" viewBox="0 0 1200 630" preserveAspectRatio="xMidYMid meet">
  <title id="fable-omega-mega-hub-topology-title">FABLE OMEGA mega-hub topology</title>
  <desc id="fable-omega-mega-hub-topology-desc">Fifteen hubs connected to one dispatcher kernel.</desc>
  <defs>
    <linearGradient id="g-cyan" x1="0" y1="0" x2="1" y2="1">
      <stop offset="0" stop-color="#22D3EE" stop-opacity="0.95"/>
      <stop offset="1" stop-color="#2AABEE" stop-opacity="0.65"/>
    </linearGradient>
    <linearGradient id="g-violet" x1="0" y1="0" x2="1" y2="1">
      <stop offset="0" stop-color="#8B5CF6" stop-opacity="0.95"/>
      <stop offset="1" stop-color="#22D3EE" stop-opacity="0.4"/>
    </linearGradient>
    <filter id="soft-glow" x="-50%" y="-50%" width="200%" height="200%">
      <feGaussianBlur stdDeviation="4" result="blur"/>
      <feColorMatrix in="blur" type="matrix" values="0 0 0 0 0.13 0 0 0 0 0.83 0 0 0 0 0.93 0 0 0 0.7 0"/>
      <feMerge><feMergeNode/><feMergeNode in="SourceGraphic"/></feMerge>
    </filter>
    <style>
      .bg { fill:#07090C; }
      .panel { fill:#0B1118; stroke:#162130; stroke-width:1.4; rx:22; }
      .panel2 { fill:#091019; stroke:#203044; stroke-width:1.2; rx:18; }
      .line { stroke:#22D3EE; stroke-width:2; stroke-opacity:.58; fill:none; }
      .rail { stroke:#2AABEE; stroke-width:4; stroke-linecap:round; stroke-opacity:.78; fill:none; }
      .violet { stroke:#8B5CF6; fill:none; }
      .green { stroke:#34D399; fill:none; }
      .label { font: 700 16px ui-monospace, SFMono-Regular, Menlo, Consolas, monospace; fill:#E6F7FB; }
      .small { font: 500 12px ui-monospace, SFMono-Regular, Menlo, Consolas, monospace; fill:#93A4B7; }
      .tiny { font: 600 10px ui-monospace, SFMono-Regular, Menlo, Consolas, monospace; fill:#93A4B7; letter-spacing:.08em; }
      .mega { font: 900 52px ui-sans-serif, Inter, Arial, sans-serif; fill:#E6F7FB; letter-spacing:-.05em; }
      .num { font: 900 36px ui-sans-serif, Inter, Arial, sans-serif; fill:#22D3EE; }
      .metric { font: 900 28px ui-sans-serif, Inter, Arial, sans-serif; fill:#34D399; }
      .cyan-fill { fill:#22D3EE; } .blue-fill { fill:#2AABEE; } .violet-fill { fill:#8B5CF6; } .green-fill { fill:#34D399; }
    </style>
  </defs>
  <rect class="bg" width="1200" height="630"/>
  <path d="M0 72 H1200 M0 558 H1200" stroke="#162130" stroke-width="1"/>
  <text x="70.0" y="116.0" class="mega" text-anchor="start">MEGA-HUB TOPOLOGY</text>
  <text x="74.0" y="150.0" class="small" text-anchor="start">Fifteen strategic Telegram surfaces share one dispatcher and one runtime</text>
  <circle cx="600.0" cy="345.0" r="84.0" fill="#0B1118" stroke="#22D3EE" stroke-width="5" filter="url(#soft-glow)"/>
  <text x="600.0" y="339.0" class="label" text-anchor="middle">DISPATCH</text>
  <text x="600.0" y="369.0" class="label" text-anchor="middle">KERNEL</text>
  <path d="M600.0,345.0 C600.0,255.0 600.0,185.0 600.0,135.0" class="rail" opacity="0.45"/>
  <circle cx="600.0" cy="135.0" r="28.0" fill="#0B1118" stroke="#34D399" stroke-width="2.5"/>
  <text x="600.0" y="133.0" class="label" text-anchor="middle">01</text>
  <text x="600.0" y="153.0" class="tiny" text-anchor="middle">8</text>
  <path d="M600.0,345.0 C669.1,262.8 738.3,198.8 774.9,153.2" class="rail" opacity="0.45"/>
  <circle cx="774.9" cy="153.2" r="28.0" fill="#0B1118" stroke="#34D399" stroke-width="2.5"/>
  <text x="774.9" y="151.2" class="label" text-anchor="middle">02</text>
  <text x="774.9" y="171.2" class="tiny" text-anchor="middle">5</text>
  <path d="M600.0,345.0 C726.3,284.8 852.7,237.9 919.6,204.5" class="rail" opacity="0.45"/>
  <circle cx="919.6" cy="204.5" r="28.0" fill="#0B1118" stroke="#34D399" stroke-width="2.5"/>
  <text x="919.6" y="202.5" class="label" text-anchor="middle">03</text>
  <text x="919.6" y="222.5" class="tiny" text-anchor="middle">93</text>
  <path d="M600.0,345.0 C761.7,317.2 923.4,295.6 1009.0,280.1" class="rail" opacity="0.45"/>
  <circle cx="1009.0" cy="280.1" r="28.0" fill="#0B1118" stroke="#F87171" stroke-width="2.5"/>
  <text x="1009.0" y="278.1" class="label" text-anchor="middle">04</text>
  <text x="1009.0" y="298.1" class="tiny" text-anchor="middle">0</text>
  <path d="M600.0,345.0 C769.1,354.4 938.1,361.7 1027.6,367.0" class="rail" opacity="0.45"/>
  <circle cx="1027.6" cy="367.0" r="28.0" fill="#0B1118" stroke="#34D399" stroke-width="2.5"/>
  <text x="1027.6" y="365.0" class="label" text-anchor="middle">05</text>
  <text x="1027.6" y="385.0" class="tiny" text-anchor="middle">6</text>
  <path d="M600.0,345.0 C747.2,390.0 894.4,425.0 972.4,450.0" class="rail" opacity="0.45"/>
  <circle cx="972.4" cy="450.0" r="28.0" fill="#0B1118" stroke="#34D399" stroke-width="2.5"/>
  <text x="972.4" y="448.0" class="label" text-anchor="middle">06</text>
  <text x="972.4" y="468.0" class="tiny" text-anchor="middle">2</text>
  <path d="M600.0,345.0 C699.9,417.8 799.8,474.4 852.7,514.9" class="rail" opacity="0.45"/>
  <circle cx="852.7" cy="514.9" r="28.0" fill="#0B1118" stroke="#34D399" stroke-width="2.5"/>
  <text x="852.7" y="512.9" class="label" text-anchor="middle">07</text>
  <text x="852.7" y="532.9" class="tiny" text-anchor="middle">12</text>
  <path d="M600.0,345.0 C635.3,433.0 670.7,501.5 689.4,550.4" class="rail" opacity="0.45"/>
  <circle cx="689.4" cy="550.4" r="28.0" fill="#0B1118" stroke="#34D399" stroke-width="2.5"/>
  <text x="689.4" y="548.4" class="label" text-anchor="middle">08</text>
  <text x="689.4" y="568.4" class="tiny" text-anchor="middle">2</text>
  <path d="M600.0,345.0 C564.7,433.0 529.3,501.5 510.6,550.4" class="rail" opacity="0.45"/>
  <circle cx="510.6" cy="550.4" r="28.0" fill="#0B1118" stroke="#34D399" stroke-width="2.5"/>
  <text x="510.6" y="548.4" class="label" text-anchor="middle">09</text>
  <text x="510.6" y="568.4" class="tiny" text-anchor="middle">3</text>
  <path d="M600.0,345.0 C500.1,417.8 400.2,474.4 347.3,514.9" class="rail" opacity="0.45"/>
  <circle cx="347.3" cy="514.9" r="28.0" fill="#0B1118" stroke="#34D399" stroke-width="2.5"/>
  <text x="347.3" y="512.9" class="label" text-anchor="middle">10</text>
  <text x="347.3" y="532.9" class="tiny" text-anchor="middle">2</text>
  <path d="M600.0,345.0 C452.8,390.0 305.6,425.0 227.6,450.0" class="rail" opacity="0.45"/>
  <circle cx="227.6" cy="450.0" r="28.0" fill="#0B1118" stroke="#34D399" stroke-width="2.5"/>
  <text x="227.6" y="448.0" class="label" text-anchor="middle">11</text>
  <text x="227.6" y="468.0" class="tiny" text-anchor="middle">4</text>
  <path d="M600.0,345.0 C430.9,354.4 261.9,361.7 172.4,367.0" class="rail" opacity="0.45"/>
  <circle cx="172.4" cy="367.0" r="28.0" fill="#0B1118" stroke="#34D399" stroke-width="2.5"/>
  <text x="172.4" y="365.0" class="label" text-anchor="middle">12</text>
  <text x="172.4" y="385.0" class="tiny" text-anchor="middle">1</text>
  <path d="M600.0,345.0 C438.3,317.2 276.6,295.6 191.0,280.1" class="rail" opacity="0.45"/>
  <circle cx="191.0" cy="280.1" r="28.0" fill="#0B1118" stroke="#34D399" stroke-width="2.5"/>
  <text x="191.0" y="278.1" class="label" text-anchor="middle">13</text>
  <text x="191.0" y="298.1" class="tiny" text-anchor="middle">50</text>
  <path d="M600.0,345.0 C473.7,284.8 347.3,237.9 280.4,204.5" class="rail" opacity="0.45"/>
  <circle cx="280.4" cy="204.5" r="28.0" fill="#0B1118" stroke="#34D399" stroke-width="2.5"/>
  <text x="280.4" y="202.5" class="label" text-anchor="middle">14</text>
  <text x="280.4" y="222.5" class="tiny" text-anchor="middle">2</text>
  <path d="M600.0,345.0 C530.9,262.8 461.7,198.8 425.1,153.2" class="rail" opacity="0.45"/>
  <circle cx="425.1" cy="153.2" r="28.0" fill="#0B1118" stroke="#34D399" stroke-width="2.5"/>
  <text x="425.1" y="151.2" class="label" text-anchor="middle">15</text>
  <text x="425.1" y="171.2" class="tiny" text-anchor="middle">255</text>
  <text x="80.0" y="545.0" class="tiny" text-anchor="start">Counts are produced by src.core.hub_router.HUB_ROUTER at asset build time.</text>
</svg>
